<mxfile host="app.diagrams.net" modified="2023-03-27T15:26:57.038Z" agent="Mozilla/5.0 (Windows NT 10.0; Win64; x64) AppleWebKit/537.36 (KHTML, like Gecko) Chrome/111.0.0.0 Safari/537.36" etag="VQhlLYlnNe6w9UGi3wdo" version="21.1.1" type="github">
  <diagram name="PÃ¡gina-1" id="syB9yQjXAcaPBo707fJ7">
    <mxGraphModel dx="1050" dy="541" grid="1" gridSize="10" guides="1" tooltips="1" connect="1" arrows="1" fold="1" page="1" pageScale="1" pageWidth="827" pageHeight="1169" math="0" shadow="0">
      <root>
        <mxCell id="0" />
        <mxCell id="1" parent="0" />
        <mxCell id="hR2g8QXn8CW2TvooFRMQ-3" value="" style="edgeStyle=orthogonalEdgeStyle;rounded=0;orthogonalLoop=1;jettySize=auto;html=1;" parent="1" source="hR2g8QXn8CW2TvooFRMQ-1" target="hR2g8QXn8CW2TvooFRMQ-2" edge="1">
          <mxGeometry relative="1" as="geometry" />
        </mxCell>
        <mxCell id="hR2g8QXn8CW2TvooFRMQ-1" value="Inicio" style="ellipse;whiteSpace=wrap;html=1;" parent="1" vertex="1">
          <mxGeometry x="354" width="120" height="80" as="geometry" />
        </mxCell>
        <mxCell id="hR2g8QXn8CW2TvooFRMQ-5" value="" style="edgeStyle=orthogonalEdgeStyle;rounded=0;orthogonalLoop=1;jettySize=auto;html=1;" parent="1" source="hR2g8QXn8CW2TvooFRMQ-2" edge="1">
          <mxGeometry relative="1" as="geometry">
            <mxPoint x="414" y="310" as="targetPoint" />
          </mxGeometry>
        </mxCell>
        <mxCell id="hR2g8QXn8CW2TvooFRMQ-2" value="Leer Rc, Ri y Rb" style="shape=parallelogram;perimeter=parallelogramPerimeter;whiteSpace=wrap;html=1;fixedSize=1;" parent="1" vertex="1">
          <mxGeometry x="354" y="170" width="120" height="60" as="geometry" />
        </mxCell>
        <mxCell id="hR2g8QXn8CW2TvooFRMQ-8" value="" style="edgeStyle=orthogonalEdgeStyle;rounded=0;orthogonalLoop=1;jettySize=auto;html=1;" parent="1" source="hR2g8QXn8CW2TvooFRMQ-6" target="hR2g8QXn8CW2TvooFRMQ-7" edge="1">
          <mxGeometry relative="1" as="geometry" />
        </mxCell>
        <mxCell id="hR2g8QXn8CW2TvooFRMQ-6" value="Po = (Rc * 4) + (Ri *(-1))" style="rounded=0;whiteSpace=wrap;html=1;" parent="1" vertex="1">
          <mxGeometry x="324" y="310" width="180" height="60" as="geometry" />
        </mxCell>
        <mxCell id="hR2g8QXn8CW2TvooFRMQ-10" value="" style="edgeStyle=orthogonalEdgeStyle;rounded=0;orthogonalLoop=1;jettySize=auto;html=1;" parent="1" source="hR2g8QXn8CW2TvooFRMQ-7" target="hR2g8QXn8CW2TvooFRMQ-9" edge="1">
          <mxGeometry relative="1" as="geometry" />
        </mxCell>
        <mxCell id="hR2g8QXn8CW2TvooFRMQ-7" value="Escribir &quot;El puntaje obtenido es&quot; + PO" style="shape=parallelogram;perimeter=parallelogramPerimeter;whiteSpace=wrap;html=1;fixedSize=1;rounded=0;" parent="1" vertex="1">
          <mxGeometry x="280" y="450" width="260" height="60" as="geometry" />
        </mxCell>
        <mxCell id="hR2g8QXn8CW2TvooFRMQ-9" value="Fin" style="ellipse;whiteSpace=wrap;html=1;rounded=0;" parent="1" vertex="1">
          <mxGeometry x="370" y="580" width="80" height="80" as="geometry" />
        </mxCell>
        <mxCell id="hR2g8QXn8CW2TvooFRMQ-13" value="" style="edgeStyle=orthogonalEdgeStyle;rounded=0;orthogonalLoop=1;jettySize=auto;html=1;" parent="1" source="hR2g8QXn8CW2TvooFRMQ-11" target="hR2g8QXn8CW2TvooFRMQ-12" edge="1">
          <mxGeometry relative="1" as="geometry" />
        </mxCell>
        <mxCell id="hR2g8QXn8CW2TvooFRMQ-11" value="Inicio" style="ellipse;whiteSpace=wrap;html=1;" parent="1" vertex="1">
          <mxGeometry x="354" y="710" width="120" height="80" as="geometry" />
        </mxCell>
        <mxCell id="hR2g8QXn8CW2TvooFRMQ-15" value="" style="edgeStyle=orthogonalEdgeStyle;rounded=0;orthogonalLoop=1;jettySize=auto;html=1;" parent="1" source="hR2g8QXn8CW2TvooFRMQ-12" target="hR2g8QXn8CW2TvooFRMQ-14" edge="1">
          <mxGeometry relative="1" as="geometry" />
        </mxCell>
        <mxCell id="hR2g8QXn8CW2TvooFRMQ-12" value="Leer R" style="shape=parallelogram;perimeter=parallelogramPerimeter;whiteSpace=wrap;html=1;fixedSize=1;" parent="1" vertex="1">
          <mxGeometry x="354" y="880" width="120" height="60" as="geometry" />
        </mxCell>
        <mxCell id="hR2g8QXn8CW2TvooFRMQ-17" value="" style="edgeStyle=orthogonalEdgeStyle;rounded=0;orthogonalLoop=1;jettySize=auto;html=1;" parent="1" source="hR2g8QXn8CW2TvooFRMQ-14" target="hR2g8QXn8CW2TvooFRMQ-16" edge="1">
          <mxGeometry relative="1" as="geometry" />
        </mxCell>
        <mxCell id="hR2g8QXn8CW2TvooFRMQ-14" value="A = R ^ 2 * pi" style="whiteSpace=wrap;html=1;" parent="1" vertex="1">
          <mxGeometry x="354" y="1020" width="120" height="60" as="geometry" />
        </mxCell>
        <mxCell id="hR2g8QXn8CW2TvooFRMQ-19" value="" style="edgeStyle=orthogonalEdgeStyle;rounded=0;orthogonalLoop=1;jettySize=auto;html=1;" parent="1" source="hR2g8QXn8CW2TvooFRMQ-16" target="hR2g8QXn8CW2TvooFRMQ-18" edge="1">
          <mxGeometry relative="1" as="geometry" />
        </mxCell>
        <mxCell id="hR2g8QXn8CW2TvooFRMQ-16" value="Escribir &quot;El area del circulo &quot; + A" style="shape=parallelogram;perimeter=parallelogramPerimeter;whiteSpace=wrap;html=1;fixedSize=1;" parent="1" vertex="1">
          <mxGeometry x="300" y="1160" width="230" height="60" as="geometry" />
        </mxCell>
        <mxCell id="hR2g8QXn8CW2TvooFRMQ-18" value="Fin" style="ellipse;whiteSpace=wrap;html=1;" parent="1" vertex="1">
          <mxGeometry x="375" y="1290" width="80" height="80" as="geometry" />
        </mxCell>
        <mxCell id="hR2g8QXn8CW2TvooFRMQ-23" value="" style="edgeStyle=orthogonalEdgeStyle;rounded=0;orthogonalLoop=1;jettySize=auto;html=1;" parent="1" source="hR2g8QXn8CW2TvooFRMQ-21" target="hR2g8QXn8CW2TvooFRMQ-22" edge="1">
          <mxGeometry relative="1" as="geometry" />
        </mxCell>
        <mxCell id="hR2g8QXn8CW2TvooFRMQ-21" value="Inicio" style="ellipse;whiteSpace=wrap;html=1;" parent="1" vertex="1">
          <mxGeometry x="355" y="1400" width="120" height="80" as="geometry" />
        </mxCell>
        <mxCell id="hR2g8QXn8CW2TvooFRMQ-25" value="" style="edgeStyle=orthogonalEdgeStyle;rounded=0;orthogonalLoop=1;jettySize=auto;html=1;" parent="1" source="hR2g8QXn8CW2TvooFRMQ-22" target="hR2g8QXn8CW2TvooFRMQ-24" edge="1">
          <mxGeometry relative="1" as="geometry" />
        </mxCell>
        <mxCell id="hR2g8QXn8CW2TvooFRMQ-22" value="Leer HT, SxH&amp;nbsp;" style="shape=parallelogram;perimeter=parallelogramPerimeter;whiteSpace=wrap;html=1;fixedSize=1;" parent="1" vertex="1">
          <mxGeometry x="355" y="1570" width="120" height="60" as="geometry" />
        </mxCell>
        <mxCell id="hR2g8QXn8CW2TvooFRMQ-27" value="" style="edgeStyle=orthogonalEdgeStyle;rounded=0;orthogonalLoop=1;jettySize=auto;html=1;" parent="1" source="hR2g8QXn8CW2TvooFRMQ-24" target="hR2g8QXn8CW2TvooFRMQ-26" edge="1">
          <mxGeometry relative="1" as="geometry" />
        </mxCell>
        <mxCell id="hR2g8QXn8CW2TvooFRMQ-30" value="" style="edgeStyle=orthogonalEdgeStyle;rounded=0;orthogonalLoop=1;jettySize=auto;html=1;" parent="1" source="hR2g8QXn8CW2TvooFRMQ-24" target="hR2g8QXn8CW2TvooFRMQ-29" edge="1">
          <mxGeometry relative="1" as="geometry" />
        </mxCell>
        <mxCell id="hR2g8QXn8CW2TvooFRMQ-24" value="HT&amp;gt; 40" style="rhombus;whiteSpace=wrap;html=1;" parent="1" vertex="1">
          <mxGeometry x="350" y="1690" width="130" height="120" as="geometry" />
        </mxCell>
        <mxCell id="hR2g8QXn8CW2TvooFRMQ-37" value="" style="edgeStyle=orthogonalEdgeStyle;rounded=0;orthogonalLoop=1;jettySize=auto;html=1;" parent="1" source="hR2g8QXn8CW2TvooFRMQ-26" edge="1">
          <mxGeometry relative="1" as="geometry">
            <mxPoint x="440" y="1990" as="targetPoint" />
          </mxGeometry>
        </mxCell>
        <mxCell id="hR2g8QXn8CW2TvooFRMQ-26" value="S = HT * SxH" style="whiteSpace=wrap;html=1;" parent="1" vertex="1">
          <mxGeometry x="540" y="1880" width="120" height="60" as="geometry" />
        </mxCell>
        <mxCell id="hR2g8QXn8CW2TvooFRMQ-28" value="Si" style="text;html=1;align=center;verticalAlign=middle;resizable=0;points=[];autosize=1;strokeColor=none;fillColor=none;" parent="1" vertex="1">
          <mxGeometry x="290" y="1720" width="30" height="30" as="geometry" />
        </mxCell>
        <mxCell id="hR2g8QXn8CW2TvooFRMQ-33" value="" style="edgeStyle=orthogonalEdgeStyle;rounded=0;orthogonalLoop=1;jettySize=auto;html=1;" parent="1" source="hR2g8QXn8CW2TvooFRMQ-29" target="hR2g8QXn8CW2TvooFRMQ-32" edge="1">
          <mxGeometry relative="1" as="geometry" />
        </mxCell>
        <mxCell id="hR2g8QXn8CW2TvooFRMQ-29" value="R = HT MOD 40" style="whiteSpace=wrap;html=1;" parent="1" vertex="1">
          <mxGeometry x="145" y="1720" width="120" height="60" as="geometry" />
        </mxCell>
        <mxCell id="hR2g8QXn8CW2TvooFRMQ-31" value="No" style="text;html=1;align=center;verticalAlign=middle;resizable=0;points=[];autosize=1;strokeColor=none;fillColor=none;" parent="1" vertex="1">
          <mxGeometry x="500" y="1725" width="40" height="30" as="geometry" />
        </mxCell>
        <mxCell id="hR2g8QXn8CW2TvooFRMQ-35" value="" style="edgeStyle=orthogonalEdgeStyle;rounded=0;orthogonalLoop=1;jettySize=auto;html=1;" parent="1" source="hR2g8QXn8CW2TvooFRMQ-32" edge="1">
          <mxGeometry relative="1" as="geometry">
            <mxPoint x="380" y="1990" as="targetPoint" />
          </mxGeometry>
        </mxCell>
        <mxCell id="hR2g8QXn8CW2TvooFRMQ-32" value="S = ((HT - R) * SxH) + (R *(SxH * 2))" style="whiteSpace=wrap;html=1;" parent="1" vertex="1">
          <mxGeometry x="120" y="1860" width="170" height="60" as="geometry" />
        </mxCell>
        <mxCell id="hR2g8QXn8CW2TvooFRMQ-40" value="" style="edgeStyle=orthogonalEdgeStyle;rounded=0;orthogonalLoop=1;jettySize=auto;html=1;" parent="1" source="hR2g8QXn8CW2TvooFRMQ-38" target="hR2g8QXn8CW2TvooFRMQ-39" edge="1">
          <mxGeometry relative="1" as="geometry" />
        </mxCell>
        <mxCell id="hR2g8QXn8CW2TvooFRMQ-38" value="Escribir (&quot;El sueldo del empleado es:&quot;, S)" style="shape=parallelogram;perimeter=parallelogramPerimeter;whiteSpace=wrap;html=1;fixedSize=1;" parent="1" vertex="1">
          <mxGeometry x="280" y="1990" width="240" height="60" as="geometry" />
        </mxCell>
        <mxCell id="hR2g8QXn8CW2TvooFRMQ-39" value="Fin" style="ellipse;whiteSpace=wrap;html=1;" parent="1" vertex="1">
          <mxGeometry x="360" y="2120" width="80" height="80" as="geometry" />
        </mxCell>
        <mxCell id="hR2g8QXn8CW2TvooFRMQ-43" value="" style="edgeStyle=orthogonalEdgeStyle;rounded=0;orthogonalLoop=1;jettySize=auto;html=1;" parent="1" source="hR2g8QXn8CW2TvooFRMQ-41" target="hR2g8QXn8CW2TvooFRMQ-42" edge="1">
          <mxGeometry relative="1" as="geometry" />
        </mxCell>
        <mxCell id="hR2g8QXn8CW2TvooFRMQ-41" value="Inicio" style="ellipse;whiteSpace=wrap;html=1;" parent="1" vertex="1">
          <mxGeometry x="360" y="2338" width="80" height="80" as="geometry" />
        </mxCell>
        <mxCell id="hR2g8QXn8CW2TvooFRMQ-45" value="" style="edgeStyle=orthogonalEdgeStyle;rounded=0;orthogonalLoop=1;jettySize=auto;html=1;entryX=0.5;entryY=0;entryDx=0;entryDy=0;" parent="1" source="hR2g8QXn8CW2TvooFRMQ-42" target="hR2g8QXn8CW2TvooFRMQ-54" edge="1">
          <mxGeometry relative="1" as="geometry">
            <mxPoint x="400" y="2480" as="targetPoint" />
          </mxGeometry>
        </mxCell>
        <mxCell id="hR2g8QXn8CW2TvooFRMQ-42" value="Leer X e Y" style="shape=parallelogram;perimeter=parallelogramPerimeter;whiteSpace=wrap;html=1;fixedSize=1;" parent="1" vertex="1">
          <mxGeometry x="340" y="2440" width="120" height="60" as="geometry" />
        </mxCell>
        <mxCell id="hR2g8QXn8CW2TvooFRMQ-48" value="" style="edgeStyle=orthogonalEdgeStyle;rounded=0;orthogonalLoop=1;jettySize=auto;html=1;" parent="1" source="hR2g8QXn8CW2TvooFRMQ-46" target="hR2g8QXn8CW2TvooFRMQ-47" edge="1">
          <mxGeometry relative="1" as="geometry" />
        </mxCell>
        <mxCell id="hR2g8QXn8CW2TvooFRMQ-51" value="" style="edgeStyle=orthogonalEdgeStyle;rounded=0;orthogonalLoop=1;jettySize=auto;html=1;entryX=0;entryY=0.5;entryDx=0;entryDy=0;" parent="1" source="hR2g8QXn8CW2TvooFRMQ-46" target="hR2g8QXn8CW2TvooFRMQ-53" edge="1">
          <mxGeometry relative="1" as="geometry">
            <mxPoint x="570" y="2530" as="targetPoint" />
          </mxGeometry>
        </mxCell>
        <mxCell id="hR2g8QXn8CW2TvooFRMQ-46" value="Y = 0" style="rhombus;whiteSpace=wrap;html=1;" parent="1" vertex="1">
          <mxGeometry x="360" y="2600" width="80" height="80" as="geometry" />
        </mxCell>
        <mxCell id="hR2g8QXn8CW2TvooFRMQ-62" style="edgeStyle=orthogonalEdgeStyle;rounded=0;orthogonalLoop=1;jettySize=auto;html=1;exitX=0.5;exitY=1;exitDx=0;exitDy=0;" parent="1" source="hR2g8QXn8CW2TvooFRMQ-47" edge="1">
          <mxGeometry relative="1" as="geometry">
            <mxPoint x="130" y="2920" as="targetPoint" />
            <Array as="points">
              <mxPoint x="130" y="2750" />
            </Array>
          </mxGeometry>
        </mxCell>
        <mxCell id="hR2g8QXn8CW2TvooFRMQ-47" value="Escribir (&quot;El resultado es 1&quot;)" style="shape=parallelogram;perimeter=parallelogramPerimeter;whiteSpace=wrap;html=1;fixedSize=1;" parent="1" vertex="1">
          <mxGeometry x="40" y="2610" width="180" height="60" as="geometry" />
        </mxCell>
        <mxCell id="hR2g8QXn8CW2TvooFRMQ-49" value="Si" style="text;html=1;align=center;verticalAlign=middle;resizable=0;points=[];autosize=1;strokeColor=none;fillColor=none;" parent="1" vertex="1">
          <mxGeometry x="260" y="2610" width="30" height="30" as="geometry" />
        </mxCell>
        <mxCell id="hR2g8QXn8CW2TvooFRMQ-52" value="No" style="text;html=1;align=center;verticalAlign=middle;resizable=0;points=[];autosize=1;strokeColor=none;fillColor=none;" parent="1" vertex="1">
          <mxGeometry x="445" y="2610" width="40" height="30" as="geometry" />
        </mxCell>
        <mxCell id="hR2g8QXn8CW2TvooFRMQ-69" style="edgeStyle=orthogonalEdgeStyle;rounded=0;orthogonalLoop=1;jettySize=auto;html=1;exitX=0.25;exitY=1;exitDx=0;exitDy=0;entryX=0.5;entryY=0;entryDx=0;entryDy=0;" parent="1" source="hR2g8QXn8CW2TvooFRMQ-53" target="hR2g8QXn8CW2TvooFRMQ-56" edge="1">
          <mxGeometry relative="1" as="geometry" />
        </mxCell>
        <mxCell id="hR2g8QXn8CW2TvooFRMQ-53" value="Producto = Producto * X&lt;br&gt;Numero = Numero + 1" style="rounded=0;whiteSpace=wrap;html=1;" parent="1" vertex="1">
          <mxGeometry x="540" y="2580" width="170" height="80" as="geometry" />
        </mxCell>
        <mxCell id="hR2g8QXn8CW2TvooFRMQ-54" value="Numero = 0&lt;br style=&quot;border-color: var(--border-color);&quot;&gt;Producto = 1" style="rounded=0;whiteSpace=wrap;html=1;" parent="1" vertex="1">
          <mxGeometry x="340" y="2520" width="120" height="60" as="geometry" />
        </mxCell>
        <mxCell id="hR2g8QXn8CW2TvooFRMQ-55" value="" style="edgeStyle=segmentEdgeStyle;endArrow=classic;html=1;curved=0;rounded=0;endSize=8;startSize=8;sourcePerimeterSpacing=0;targetPerimeterSpacing=0;entryX=0.5;entryY=0;entryDx=0;entryDy=0;" parent="1" target="hR2g8QXn8CW2TvooFRMQ-46" edge="1">
          <mxGeometry width="100" relative="1" as="geometry">
            <mxPoint x="400" y="2580" as="sourcePoint" />
            <mxPoint x="480" y="2580" as="targetPoint" />
            <Array as="points">
              <mxPoint x="400" y="2580" />
            </Array>
          </mxGeometry>
        </mxCell>
        <mxCell id="hR2g8QXn8CW2TvooFRMQ-59" style="edgeStyle=orthogonalEdgeStyle;rounded=0;orthogonalLoop=1;jettySize=auto;html=1;exitX=1;exitY=0.5;exitDx=0;exitDy=0;entryX=0.609;entryY=0.998;entryDx=0;entryDy=0;entryPerimeter=0;" parent="1" source="hR2g8QXn8CW2TvooFRMQ-56" target="hR2g8QXn8CW2TvooFRMQ-53" edge="1">
          <mxGeometry relative="1" as="geometry">
            <mxPoint x="800" y="2632" as="targetPoint" />
            <Array as="points">
              <mxPoint x="720" y="2790" />
              <mxPoint x="790" y="2790" />
              <mxPoint x="790" y="2680" />
              <mxPoint x="784" y="2680" />
            </Array>
          </mxGeometry>
        </mxCell>
        <mxCell id="hR2g8QXn8CW2TvooFRMQ-61" style="edgeStyle=orthogonalEdgeStyle;rounded=0;orthogonalLoop=1;jettySize=auto;html=1;exitX=0;exitY=0.5;exitDx=0;exitDy=0;" parent="1" source="hR2g8QXn8CW2TvooFRMQ-56" target="hR2g8QXn8CW2TvooFRMQ-63" edge="1">
          <mxGeometry relative="1" as="geometry">
            <mxPoint x="520" y="2770" as="targetPoint" />
          </mxGeometry>
        </mxCell>
        <mxCell id="hR2g8QXn8CW2TvooFRMQ-56" value="Numero = Y" style="rhombus;whiteSpace=wrap;html=1;rounded=0;" parent="1" vertex="1">
          <mxGeometry x="565" y="2740" width="95" height="90" as="geometry" />
        </mxCell>
        <mxCell id="hR2g8QXn8CW2TvooFRMQ-60" value="No" style="text;html=1;align=center;verticalAlign=middle;resizable=0;points=[];autosize=1;strokeColor=none;fillColor=none;" parent="1" vertex="1">
          <mxGeometry x="720" y="2760" width="40" height="30" as="geometry" />
        </mxCell>
        <mxCell id="hR2g8QXn8CW2TvooFRMQ-64" style="edgeStyle=orthogonalEdgeStyle;rounded=0;orthogonalLoop=1;jettySize=auto;html=1;exitX=0.25;exitY=1;exitDx=0;exitDy=0;" parent="1" source="hR2g8QXn8CW2TvooFRMQ-63" target="hR2g8QXn8CW2TvooFRMQ-65" edge="1">
          <mxGeometry relative="1" as="geometry">
            <mxPoint x="190" y="2770" as="targetPoint" />
            <mxPoint x="410" y="2910" as="sourcePoint" />
            <Array as="points">
              <mxPoint x="325" y="2960" />
            </Array>
          </mxGeometry>
        </mxCell>
        <mxCell id="hR2g8QXn8CW2TvooFRMQ-63" value="Escribir (&quot;El resultado es: &quot;, Producto)" style="shape=parallelogram;perimeter=parallelogramPerimeter;whiteSpace=wrap;html=1;fixedSize=1;" parent="1" vertex="1">
          <mxGeometry x="275" y="2840" width="200" height="60" as="geometry" />
        </mxCell>
        <mxCell id="hR2g8QXn8CW2TvooFRMQ-65" value="Fin" style="ellipse;whiteSpace=wrap;html=1;aspect=fixed;" parent="1" vertex="1">
          <mxGeometry x="90" y="2923" width="80" height="80" as="geometry" />
        </mxCell>
        <mxCell id="hR2g8QXn8CW2TvooFRMQ-66" value="Si" style="text;html=1;align=center;verticalAlign=middle;resizable=0;points=[];autosize=1;strokeColor=none;fillColor=none;" parent="1" vertex="1">
          <mxGeometry x="485" y="2760" width="30" height="30" as="geometry" />
        </mxCell>
        <mxCell id="hR2g8QXn8CW2TvooFRMQ-72" value="" style="edgeStyle=orthogonalEdgeStyle;rounded=0;orthogonalLoop=1;jettySize=auto;html=1;" parent="1" source="hR2g8QXn8CW2TvooFRMQ-70" target="hR2g8QXn8CW2TvooFRMQ-71" edge="1">
          <mxGeometry relative="1" as="geometry" />
        </mxCell>
        <mxCell id="hR2g8QXn8CW2TvooFRMQ-70" value="Inicio" style="ellipse;whiteSpace=wrap;html=1;" parent="1" vertex="1">
          <mxGeometry x="350" y="3040" width="80" height="80" as="geometry" />
        </mxCell>
        <mxCell id="hR2g8QXn8CW2TvooFRMQ-74" value="" style="edgeStyle=orthogonalEdgeStyle;rounded=0;orthogonalLoop=1;jettySize=auto;html=1;" parent="1" source="hR2g8QXn8CW2TvooFRMQ-71" target="hR2g8QXn8CW2TvooFRMQ-73" edge="1">
          <mxGeometry relative="1" as="geometry" />
        </mxCell>
        <mxCell id="hR2g8QXn8CW2TvooFRMQ-71" value="Leer n" style="shape=parallelogram;perimeter=parallelogramPerimeter;whiteSpace=wrap;html=1;fixedSize=1;" parent="1" vertex="1">
          <mxGeometry x="330" y="3160" width="120" height="40" as="geometry" />
        </mxCell>
        <mxCell id="hR2g8QXn8CW2TvooFRMQ-76" value="" style="edgeStyle=orthogonalEdgeStyle;rounded=0;orthogonalLoop=1;jettySize=auto;html=1;" parent="1" source="hR2g8QXn8CW2TvooFRMQ-73" target="hR2g8QXn8CW2TvooFRMQ-75" edge="1">
          <mxGeometry relative="1" as="geometry" />
        </mxCell>
        <mxCell id="hR2g8QXn8CW2TvooFRMQ-73" value="div = 2" style="whiteSpace=wrap;html=1;" parent="1" vertex="1">
          <mxGeometry x="330" y="3230" width="120" height="60" as="geometry" />
        </mxCell>
        <mxCell id="hR2g8QXn8CW2TvooFRMQ-75" value="" style="rhombus;whiteSpace=wrap;html=1;" parent="1" vertex="1">
          <mxGeometry x="350" y="3340" width="80" height="80" as="geometry" />
        </mxCell>
      </root>
    </mxGraphModel>
  </diagram>
</mxfile>
